# xmcd
#
# Track frame offsets:
#	150
#	17607
#	34735
#	52085
#	71062
#	87180
#	106737
#	119727
#	140817
#	164855
#	181035
#	200385
#	218762
#	233480
#
# Disc length: 3376 seconds
#
# Revision: 1
# Processed by: cddbd v1.5.1PL0 Copyright (c) Steve Scherf et al.
# Submitted via: audiograbber 1.83.01
#
DISCID=c70d2e0e
DTITLE=Walther Morais - 'LOCO' DE BOM
DYEAR=1900
DGENRE=Gaúcha
TTITLE0='Loco' De Bom
TTITLE1=Pra Ser Feliz No Sul
TTITLE2=Canta Brasil
TTITLE3=Uma Noite No Rio Grande
TTITLE4=De Campo
TTITLE5=Romaria
TTITLE6=Saudade Dos Pagos
TTITLE7=Um Rancho No Descampado
TTITLE8=Minha Terra Da Palmeira
TTITLE9=LÁ Onde Moro
TTITLE10=Numa Tarde De CÉu Azul
TTITLE11=Destino Carreteiro
TTITLE12=Batendo Chicaca
TTITLE13=Segredos Do Meu Cambicho
EXTD=
EXTT0=
EXTT1=
EXTT2=
EXTT3=
EXTT4=
EXTT5=
EXTT6=
EXTT7=
EXTT8=
EXTT9=
EXTT10=
EXTT11=
EXTT12=
EXTT13=
PLAYORDER=
